<?xml version="1.0" standalone="no"?>
<!DOCTYPE svg PUBLIC "-//W3C//DTD SVG 20010904//EN"
 "http://www.w3.org/TR/2001/REC-SVG-20010904/DTD/svg10.dtd">
<svg version="1.0" xmlns="http://www.w3.org/2000/svg"
 width="270.000000pt" height="270.000000pt" viewBox="0 0 270.000000 270.000000"
 preserveAspectRatio="xMidYMid meet">
<metadata>
Created by potrace 1.11, written by Peter Selinger 2001-2013
</metadata>
<g transform="translate(0.000000,270.000000) scale(0.100000,-0.100000)"
fill="#000000" stroke="none">
<path d="M1489 1941 c-29 -29 -29 -30 -29 -155 l0 -126 -24 11 c-29 14 -89 4
-106 -16 -10 -12 -15 -11 -33 5 -23 22 -67 26 -98 10 -18 -10 -19 -6 -19 100
0 151 -15 180 -96 180 -24 0 -43 -8 -60 -25 l-24 -24 2 -338 3 -338 23 -3 c19
-3 22 -9 22 -48 0 -37 3 -44 20 -44 19 0 20 -7 20 -114 l0 -114 -40 -40 c-24
-24 -40 -49 -40 -63 0 -30 33 -84 59 -99 21 -10 21 -18 21 -355 l0 -345 230 0
230 0 0 341 0 341 40 45 c22 25 40 53 40 61 0 22 -39 81 -61 92 -17 10 -19 23
-19 130 0 113 1 120 20 120 17 0 20 7 20 44 0 38 3 45 25 50 16 4 25 13 25 27
0 16 19 29 85 60 113 53 136 89 100 158 -24 47 -70 54 -135 21 -22 -11 -42
-20 -45 -20 -3 0 -5 99 -5 221 l0 221 -29 29 c-20 20 -39 29 -61 29 -22 0 -41
-9 -61 -29z m89 -33 c9 -9 12 -75 12 -235 l0 -223 -54 0 -55 0 6 58 c3 31 9
61 14 67 5 5 9 79 9 165 0 159 5 180 40 180 9 0 21 -5 28 -12z m-464 -14 c13
-13 16 -42 16 -164 0 -88 4 -151 10 -155 6 -3 10 -39 10 -80 0 -64 3 -77 26
-104 34 -41 92 -44 130 -6 24 24 28 25 173 25 137 0 153 2 206 26 74 32 100
29 100 -11 0 -28 -6 -33 -97 -77 -61 -29 -98 -53 -98 -63 0 -13 -34 -15 -270
-15 l-270 0 0 310 c0 284 1 310 18 319 23 14 28 14 46 -5z m155 -278 c8 -9 11
-47 9 -107 -3 -90 -4 -94 -26 -97 -43 -6 -52 13 -52 107 0 89 8 111 41 111 9
0 22 -6 28 -14z m161 -6 c6 -11 10 -46 8 -77 -2 -44 -7 -59 -25 -70 -19 -13
-24 -12 -42 6 -23 23 -29 107 -11 142 14 25 56 25 70 -1z m110 -410 c0 -19 -7
-20 -225 -20 -218 0 -225 1 -225 20 0 19 7 20 225 20 218 0 225 -1 225 -20z
m-40 -100 l0 -30 -180 0 -180 0 0 30 0 30 180 0 180 0 0 -30z m0 -310 l0 -240
-180 0 -180 0 0 240 0 240 180 0 180 0 0 -240z m-412 -22 c-4 -22 -5 -22 -18
4 -11 23 -11 30 1 44 13 16 14 16 17 -4 2 -12 2 -32 0 -44z m481 10 c-14 -27
-19 -22 -19 19 0 34 1 35 14 18 10 -14 11 -25 5 -37z m-69 -293 l0 -35 -180 0
-180 0 0 35 0 35 180 0 180 0 0 -35z m0 -105 l0 -30 -180 0 -180 0 0 30 0 30
180 0 180 0 0 -30z m0 -100 l0 -30 -180 0 -180 0 0 30 0 30 180 0 180 0 0 -30z
m0 -105 l0 -35 -180 0 -180 0 0 35 0 35 180 0 180 0 0 -35z m0 -95 l0 -30
-180 0 -180 0 0 30 0 30 180 0 180 0 0 -30z"/>
<path d="M1249 861 c-56 -57 -29 -153 48 -167 74 -14 133 45 119 120 -14 76
-111 103 -167 47z m113 -28 c24 -21 23 -58 -2 -83 -39 -39 -100 -14 -100 41 0
53 61 79 102 42z"/>
</g>
</svg>
